# xmcd
#
# Track frame offsets: 
#        150
#        23624
#        40725
#        47075
#        72539
#        86180
#        97421
#        110202
#        121684
#        132335
#        141307
#        150500
#        190244
#        214265
#        239395
#        250648
#        264614
#        274592
#        305683
#        322921
#
# Disc length: 4662 seconds
#
# Revision: 1
# Processed by: cddbd v1.5.2PL0 Copyright (c) Steve Scherf et al.
# Submitted via: ExactAudioCopy v0.99pb5
#
DISCID=29123414
DTITLE=La Capella Reial de Catalunya - Hesperion XXI, Jordi Savall - Is
DTITLE=abel I - Reine de Castilla
DYEAR=2004
DGENRE=Ancient
TTITLE0=Exultet caelum laudibus (himno de visperas) - Anonimo (CMM 66)
TTITLE1=Anonimo (Turuquia) - Marcha turca
TTITLE2=Anonimo - Toccata (CMC 68)
TTITLE3=Triana - Dinos, madre del donsel (villancico) (CMC 90)
TTITLE4=Guillaume Dufay - Je ne vis ocques (CMM 46)
TTITLE5=Francisco de la Torre - La Spagna: Danza alta (instrumental) (
TTITLE5=CMP 321)
TTITLE6=Anonimo - Muy vrueles bozes dan (villancico) (CMC 6
TTITLE7=Juan del Enzina - Pavana (Pues que jamas olvidaros) (CMP 30)
TTITLE8=Johannes Cornago - Patres nostri peccaverunt (himno) (CMM 2)
TTITLE9=Carlo Verardi - Fernando II, Rey de Cataluna y Aragon
TTITLE10=Juan del Enzina - El que rige y el regido (villancico) (CMP 2
TTITLE10=75)
TTITLE11=Luys de Narvaez - Paseabase el Rey moro (romance)
TTITLE12=Juan del Enzina - Levanta Pascual (CMP 184)
TTITLE13=Anonimo Sefardi - Lavava y suspirava (romance)
TTITLE14=Johannnes Cornago - Bassa and Alta Danza 'Mappamundi'  (Trent C
TTITLE14=odex 88)
TTITLE15=Pedro de Tordesillas - Franceses, ?por que rrazon? (villancic
TTITLE15=o) (CMP 424)
TTITLE16=Anonimo - Sanctus (CMC 47)
TTITLE17=Juan del Enzina - Triste Espana sin ventura (romance) (CMP 83
TTITLE17=)
TTITLE18=Tradicion de Al-Andalus - Cancion en ritmo Quddan de la Nuba 
TTITLE18=Gribt
TTITLE19=Pedro de Escobar - Requiem aeternam (Granduale)
EXTD=
EXTT0=
EXTT1=
EXTT2=
EXTT3=
EXTT4=
EXTT5=
EXTT6=
EXTT7=
EXTT8=
EXTT9=
EXTT10=
EXTT11=
EXTT12=
EXTT13=
EXTT14=
EXTT15=
EXTT16=
EXTT17=
EXTT18=
EXTT19=
PLAYORDER=
